<?xml version="1.0" standalone="no"?>
<!DOCTYPE svg PUBLIC "-//W3C//DTD SVG 20010904//EN"
 "http://www.w3.org/TR/2001/REC-SVG-20010904/DTD/svg10.dtd">
<svg version="1.0" xmlns="http://www.w3.org/2000/svg"
 width="512.000000pt" height="512.000000pt" viewBox="0 0 512.000000 512.000000"
 preserveAspectRatio="xMidYMid meet">

<g transform="translate(0.000000,512.000000) scale(0.100000,-0.100000)"
fill="#000000" stroke="none">
<path d="M0 4147 c0 -765 3 -976 13 -986 8 -10 8 -12 0 -7 -8 4 -11 -7 -10
-39 1 -25 5 -45 10 -45 4 0 7 6 7 13 0 7 5 5 11 -5 5 -10 16 -15 24 -12 26 10
16 -5 -12 -20 l-28 -15 33 4 c27 3 32 1 28 -11 -3 -9 -2 -12 5 -9 6 4 8 14 5
22 -5 11 -1 14 12 11 12 -4 18 1 18 14 0 19 -29 34 -45 24 -12 -8 -61 14 -61
26 0 5 5 6 12 2 7 -5 9 -2 6 8 -4 8 -2 21 4 29 8 11 9 11 5 -2 -3 -9 1 -26 10
-38 14 -21 16 -21 39 -7 26 18 54 21 54 6 0 -5 4 -10 8 -10 5 0 9 7 9 15 0 8
-4 12 -9 9 -4 -3 -8 0 -8 6 0 7 -8 9 -19 5 -11 -3 -22 -2 -25 3 -2 4 12 8 32
8 40 -1 68 -26 58 -51 -3 -8 -1 -15 4 -15 6 0 10 6 11 13 0 6 5 2 11 -10 6
-13 15 -23 20 -23 5 0 7 4 4 9 -8 12 4 42 14 36 5 -3 6 -15 4 -28 -4 -20 -4
-20 6 3 6 13 16 28 23 33 7 5 2 6 -12 2 -17 -5 -21 -4 -16 5 4 6 16 10 26 7
11 -3 27 2 36 11 16 16 16 16 11 0 -4 -9 0 -22 8 -29 12 -10 13 -9 8 5 -4 10
0 18 11 22 14 6 13 8 -6 18 -12 6 -24 17 -25 24 -1 7 0 8 3 2 3 -6 17 -16 32
-21 24 -10 25 -11 8 -24 -14 -10 -15 -14 -3 -18 8 -3 17 1 20 9 3 9 10 12 16
9 5 -3 10 -1 10 6 0 9 4 9 15 -1 8 -6 19 -9 26 -5 8 6 8 10 -2 16 -7 4 -10 12
-5 16 4 4 13 0 20 -9 7 -10 17 -14 21 -10 5 4 5 1 1 -5 -9 -15 3 -17 24 -3 11
7 11 10 2 10 -10 0 -10 3 0 14 7 7 19 11 27 8 9 -3 12 -1 8 5 -4 7 0 10 9 9
23 -3 38 -32 20 -39 -10 -4 -12 0 -8 15 3 15 1 19 -7 14 -6 -4 -8 -12 -5 -18
4 -6 -2 -8 -17 -4 l-24 7 23 -14 c13 -7 48 -13 77 -12 30 0 51 -3 49 -7 -3 -5
6 -7 20 -4 14 3 26 0 26 -6 0 -5 -7 -7 -16 -4 -8 3 -12 2 -9 -4 9 -14 -7 -12
-28 4 -17 13 -47 14 -78 1 -9 -3 -21 1 -29 10 -7 8 -17 15 -23 15 -5 0 -3 -8
6 -18 15 -16 15 -19 2 -19 -8 0 -15 7 -15 15 0 8 -6 12 -12 9 -50 -20 -51 -20
-43 -6 7 11 6 12 -7 2 -8 -7 -17 -10 -20 -8 -3 3 -8 -3 -11 -15 -6 -23 11 -28
19 -5 4 8 10 12 15 9 5 -2 17 0 28 5 15 8 20 7 25 -5 3 -9 4 -20 1 -24 -3 -5
-1 -11 5 -15 5 -3 10 1 10 9 0 9 4 16 9 16 5 0 17 3 26 6 9 4 15 3 14 -2 -4
-22 3 -33 23 -40 31 -11 78 -12 72 -2 -3 5 2 11 11 14 9 4 14 13 11 20 -3 8
-1 14 4 14 6 0 10 -9 10 -20 0 -11 -5 -20 -12 -20 -6 0 -9 -3 -5 -6 3 -3 12
-2 19 2 7 5 19 9 26 10 8 2 17 6 20 10 4 4 -1 5 -10 1 -16 -6 -35 20 -23 31 3
3 5 0 5 -6 0 -7 9 -12 20 -12 11 0 20 4 20 10 0 5 -8 7 -17 4 -15 -5 -15 -4
-3 4 8 6 17 9 21 6 4 -2 10 0 14 6 3 5 -2 10 -11 10 -14 0 -13 3 6 20 13 11
26 18 29 15 3 -4 -1 -10 -9 -15 -8 -5 -12 -12 -8 -15 3 -4 0 -18 -7 -32 -12
-23 -12 -28 2 -38 10 -8 14 -19 10 -31 -7 -18 -6 -17 8 1 9 11 18 19 20 18 3
-1 12 0 21 4 9 3 20 0 24 -7 5 -8 16 -15 24 -16 9 -1 13 2 9 9 -4 6 -1 8 8 5
10 -4 15 3 16 25 2 28 16 46 36 47 5 0 1 -7 -8 -17 -16 -15 -16 -17 0 -26 9
-5 19 -6 22 -3 4 3 1 6 -5 6 -7 0 -12 5 -12 10 0 6 7 10 15 10 8 0 15 -4 15
-10 0 -5 11 -12 25 -16 28 -7 32 -19 10 -28 -8 -3 -15 -1 -15 4 0 6 -7 10 -15
10 -17 0 -19 -19 -4 -40 9 -12 10 -10 6 8 -6 23 -5 24 15 5 12 -10 18 -12 13
-4 -6 11 -3 13 17 8 17 -5 29 -1 40 12 13 16 14 23 2 49 -14 34 -2 54 19 33 9
-9 8 -11 -6 -5 -13 5 -16 2 -11 -10 3 -8 11 -14 17 -13 7 1 11 -3 10 -9 -1 -5
8 -16 20 -23 12 -8 19 -10 15 -6 -3 3 3 16 13 26 24 24 21 52 -5 57 -13 3 -16
0 -11 -10 5 -7 4 -9 0 -5 -5 4 -10 14 -11 22 -2 10 3 12 21 5 14 -5 26 -5 33
2 6 6 12 6 16 -1 4 -6 1 -11 -6 -11 -8 0 -13 -12 -13 -29 0 -20 4 -27 14 -23
9 3 12 1 7 -6 -5 -8 0 -11 16 -8 13 3 30 5 38 6 10 1 9 4 -5 10 -11 5 -14 9
-7 9 6 1 12 5 12 11 0 5 -8 7 -18 4 -14 -5 -15 -4 -2 5 24 17 39 13 33 -9 -3
-12 0 -20 6 -20 7 0 9 5 5 12 -5 7 -3 8 6 3 10 -6 12 -3 7 11 -7 18 -6 18 7 1
10 -14 15 -15 19 -5 4 11 6 11 6 0 1 -7 5 -11 11 -7 5 3 7 12 4 19 -3 8 -1 17
5 21 6 3 8 0 5 -9 -3 -8 2 -16 13 -19 17 -4 17 -5 0 -6 -10 0 -15 -6 -12 -11
4 -6 1 -9 -7 -8 -8 2 -12 -5 -11 -19 2 -13 -2 -23 -8 -23 -5 0 -8 4 -4 9 3 5
0 13 -6 16 -7 5 -10 0 -7 -11 4 -23 37 -31 50 -12 6 10 8 8 6 -7 -2 -12 3 -20
12 -20 10 0 15 -10 15 -32 -1 -17 2 -30 6 -27 4 2 10 0 14 -6 4 -6 11 -8 16
-4 5 3 7 10 3 15 -3 5 -10 7 -15 4 -5 -4 -9 -1 -9 4 0 6 0 13 0 16 0 3 3 5 6
4 9 -1 24 23 24 38 0 12 -17 12 -36 0 -6 -3 -14 -4 -18 0 -13 13 -5 21 19 18
17 -1 29 4 36 16 8 15 6 19 -6 19 -9 0 -14 -3 -12 -7 3 -5 -14 -9 -36 -9 -23
-1 -34 0 -24 3 9 2 15 8 13 12 -3 4 11 8 30 8 20 0 40 6 45 14 6 10 9 10 9 2
0 -7 5 -13 11 -13 6 0 7 6 2 13 -4 6 5 4 21 -6 28 -19 53 -14 26 4 -12 9 -12
10 3 5 11 -3 17 0 17 10 0 11 -5 14 -17 9 -13 -4 -15 -3 -7 5 14 14 41 4 41
-15 0 -8 -4 -15 -9 -15 -4 0 -8 -9 -8 -20 0 -13 -5 -18 -15 -14 -8 4 -15 1
-15 -5 0 -6 8 -11 18 -11 14 0 15 -2 2 -10 -10 -6 -11 -10 -2 -10 18 0 15 -36
-5 -56 -17 -17 -17 -18 1 -11 16 6 18 3 14 -38 -2 -25 0 -45 3 -45 8 0 39 -81
39 -102 0 -15 -3 -16 -35 -2 -55 23 -64 19 -92 -43 -37 -83 -37 -182 -1 -283
14 -41 38 -129 52 -195 15 -66 34 -130 42 -143 8 -12 37 -38 63 -57 l48 -35
13 -105 c12 -96 24 -140 74 -274 14 -36 16 -76 14 -225 -1 -99 -4 -218 -6
-262 l-3 -81 -38 -12 c-21 -6 -67 -11 -102 -11 -75 -1 -118 -15 -182 -59 -50
-34 -70 -37 -158 -26 -113 15 -206 -32 -224 -113 -5 -26 -15 -33 -68 -52 -108
-39 -189 -79 -241 -119 -28 -21 -93 -60 -144 -85 -51 -26 -90 -51 -87 -56 4
-6 -1 -7 -11 -3 -13 5 -15 3 -9 -7 5 -8 4 -11 -2 -7 -6 4 -71 -22 -144 -58
-143 -69 -171 -88 -43 -30 43 20 84 33 91 31 7 -3 12 0 10 6 -1 6 4 13 11 15
6 3 12 0 12 -6 0 -7 10 -6 31 1 23 8 27 13 17 19 -7 5 -8 9 -2 9 5 0 14 -4 20
-10 9 -9 50 -2 104 18 8 3 19 4 24 3 4 -1 13 2 20 7 6 5 29 12 51 16 22 4 47
9 56 12 21 6 32 -22 19 -44 -8 -14 -10 -14 -11 -2 -1 8 -1 19 1 25 1 5 -8 1
-19 -9 -11 -10 -25 -15 -30 -11 -6 3 -11 1 -11 -4 0 -10 17 -15 48 -14 6 1 12
-5 12 -13 0 -7 9 -18 20 -24 14 -7 20 -7 20 0 0 5 -7 10 -15 10 -20 0 -19 16
1 24 8 3 13 2 9 -3 -8 -14 18 -19 40 -8 17 8 17 7 -3 -12 -24 -24 -21 -43 6
-40 32 3 42 -1 42 -16 0 -8 8 -14 18 -13 48 4 62 -2 62 -27 0 -20 5 -25 25
-25 28 0 35 -20 8 -21 -14 0 -13 -2 4 -9 18 -7 21 -15 18 -41 -3 -23 -1 -29 7
-21 13 13 38 4 38 -15 0 -8 -4 -11 -10 -8 -5 3 -10 1 -10 -5 0 -6 8 -10 18 -8
9 2 16 -1 15 -7 -1 -5 8 -11 20 -12 12 -1 35 -5 51 -9 21 -5 27 -4 21 5 -4 7
-9 10 -12 7 -3 -3 -15 0 -27 6 -11 7 -24 11 -28 10 -14 -4 -27 24 -16 38 8 12
9 12 4 -2 -3 -10 -1 -18 4 -18 6 0 10 7 10 15 0 23 16 18 40 -12 22 -28 58
-37 72 -18 4 6 8 2 8 -7 0 -10 -4 -18 -10 -18 -5 0 -7 -7 -4 -15 4 -8 10 -15
16 -15 5 0 6 5 2 11 -4 7 7 1 25 -12 27 -20 46 -60 21 -44 -6 4 -7 12 -4 18 5
8 3 8 -7 -1 -16 -15 -29 -16 -29 -1 0 5 5 7 10 4 6 -3 10 -1 10 4 0 6 -9 11
-20 11 -11 0 -20 -4 -20 -8 0 -5 -7 -9 -15 -9 -8 0 -15 6 -15 14 0 7 4 13 9
13 6 0 9 9 8 20 -1 11 -4 20 -8 20 -4 0 -9 -9 -12 -20 -6 -24 -39 -27 -57 -5
-17 21 -29 19 -27 -4 1 -14 5 -17 13 -10 9 7 17 3 28 -13 14 -19 18 -21 26 -8
7 10 10 11 11 3 2 -16 2 -50 0 -63 -1 -14 -19 -12 -24 3 -2 6 -3 4 -1 -6 1 -9
-5 -21 -13 -26 -14 -7 -14 -9 0 -14 9 -3 18 1 22 11 6 15 8 15 18 2 7 -8 26
-16 42 -17 22 -2 26 0 15 7 -8 5 -24 10 -35 11 -15 1 -16 2 -4 6 10 2 19 14
22 26 6 21 6 21 -8 3 -8 -11 -18 -17 -21 -13 -4 4 -1 14 7 24 9 11 10 14 1 9
-6 -4 -12 -2 -12 3 0 16 35 14 49 -2 6 -8 7 -18 3 -23 -4 -5 3 0 15 10 13 11
23 15 23 10 0 -5 7 0 15 10 11 14 15 16 15 5 1 -10 3 -9 11 4 5 9 15 17 21 17
6 0 3 -11 -6 -25 -9 -14 -13 -25 -8 -25 5 0 14 12 21 26 11 26 12 26 26 8 11
-15 15 -16 15 -4 0 9 6 6 14 -9 12 -21 12 -28 -1 -47 -11 -17 -11 -24 -2 -30
7 -4 9 -3 6 3 -4 6 1 19 9 29 14 17 15 17 10 1 -4 -11 -2 -16 5 -12 6 4 8 13
5 20 -3 8 -2 16 2 18 4 2 1 2 -6 0 -7 -1 -10 2 -7 7 3 5 17 9 30 8 13 -1 22
-4 20 -7 -3 -2 5 -9 18 -16 15 -8 24 -8 29 -1 5 7 8 4 8 -7 0 -10 5 -15 10
-12 5 3 10 2 10 -4 0 -5 -6 -12 -12 -15 -7 -3 -5 -4 6 -3 12 1 20 -5 22 -17 1
-10 8 -24 14 -30 8 -8 9 -6 4 8 -6 15 -4 17 7 11 8 -5 7 -1 -3 12 -22 24 -22
30 -3 30 8 0 12 -4 9 -9 -3 -4 2 -8 10 -8 9 0 16 -6 16 -12 0 -8 3 -9 8 -3 4
6 13 11 20 13 10 2 10 -2 2 -17 -6 -11 -16 -19 -23 -17 -6 1 -9 1 -4 -1 4 -3
4 -10 1 -16 -4 -7 7 1 25 18 18 17 32 26 31 20 -6 -26 2 -44 18 -43 9 0 26 -3
37 -7 11 -4 5 3 -12 15 -39 26 -43 45 -8 36 14 -4 25 -2 25 3 0 6 8 8 18 5 14
-5 14 -3 -2 10 -22 18 -41 21 -31 6 3 -5 -8 -2 -24 8 -16 9 -32 24 -34 32 -6
22 3 41 15 34 7 -5 8 -2 3 6 -6 10 -11 9 -21 -4 -10 -14 -17 -15 -31 -7 -10 6
-12 11 -5 11 21 0 13 18 -15 32 -15 7 -33 25 -40 39 -7 14 -23 34 -35 44 -13
11 -17 13 -10 5 6 -8 12 -19 12 -25 0 -5 -9 4 -20 20 -11 17 -20 26 -20 20 0
-5 -9 3 -19 19 -19 28 -18 53 3 69 7 5 5 7 -4 4 -8 -2 -23 0 -32 5 -12 5 -18
5 -18 -2 0 -5 -4 -10 -10 -10 -5 0 -7 7 -3 16 5 13 1 15 -18 10 -23 -6 -23 -6
-4 6 11 7 20 24 20 38 0 15 6 25 15 25 8 0 22 5 30 10 23 15 58 17 66 4 5 -9
2 -10 -12 -5 -15 6 -16 5 -7 -5 10 -10 16 -9 28 1 14 12 18 11 26 -1 7 -12 9
-12 9 1 0 8 -4 22 -10 30 -8 12 -10 12 -16 -4 -5 -14 -9 -15 -15 -4 -12 18
-11 31 1 23 16 -10 35 6 19 16 -10 6 -8 8 8 6 28 -4 42 -17 19 -17 -9 0 -14
-5 -11 -10 4 -7 12 -7 24 0 10 5 22 6 26 2 5 -4 5 2 1 13 -9 25 -7 23 50 -55
26 -36 75 -93 108 -128 66 -69 198 -158 217 -146 7 4 9 3 6 -3 -8 -13 20 -26
35 -16 6 3 8 2 5 -4 -6 -10 21 -24 110 -57 36 -13 42 -13 45 -1 3 13 7 13 32
0 15 -8 32 -12 37 -9 5 3 12 -2 15 -11 6 -13 8 -14 15 -3 11 17 11 31 1 24 -5
-3 -9 1 -9 9 0 23 24 -1 32 -32 5 -21 8 -24 15 -13 5 8 6 26 3 39 -4 18 -3 22
7 16 9 -5 11 -4 6 3 -4 7 -2 12 3 12 6 0 11 5 11 11 0 5 -4 8 -9 5 -5 -4 -11
-3 -14 1 -2 5 -2 3 -1 -4 2 -6 -3 -16 -10 -22 -16 -14 -43 17 -41 47 2 21 1
21 -18 5 -20 -17 -20 -17 -13 2 6 16 5 18 -5 7 -19 -18 -28 -15 -22 11 4 22 4
22 -10 -2 -12 -20 -15 -21 -20 -7 -4 10 -3 15 3 11 6 -3 10 1 10 10 0 11 -5
15 -16 11 -8 -3 -12 -2 -9 4 5 9 1 11 -20 10 -3 -1 -13 6 -21 15 -9 8 -20 12
-26 9 -6 -4 -8 -3 -5 3 3 5 -14 20 -38 32 -25 12 -47 27 -51 32 -3 6 -17 14
-31 20 -13 5 -21 13 -18 19 3 5 -1 10 -9 10 -9 0 -16 4 -16 10 0 5 -6 7 -13 4
-7 -2 -19 7 -27 20 -7 14 -17 23 -22 20 -4 -3 -8 0 -8 6 0 6 -12 23 -26 38
-60 64 -41 61 28 -4 66 -63 174 -135 218 -147 8 -2 12 -2 7 0 -4 3 -7 11 -7
19 0 8 -5 14 -11 14 -5 0 -8 4 -4 9 3 5 -4 12 -15 16 -20 6 -28 35 -10 35 6 0
10 7 10 15 0 8 -5 15 -11 15 -5 0 -7 4 -4 10 3 5 1 10 -4 10 -6 0 -11 5 -11
11 0 5 3 8 8 6 4 -3 7 6 7 19 0 20 -2 22 -11 9 -6 -8 -14 -12 -18 -8 -3 3 1
15 11 25 12 13 13 18 3 18 -7 0 -10 3 -7 6 3 4 1 16 -5 28 -9 18 -9 19 3 9 11
-9 14 -6 15 15 1 15 -1 21 -3 15 -3 -7 -12 -13 -21 -13 -12 0 -13 3 -4 12 16
16 15 31 -1 23 -6 -4 6 9 28 28 36 31 41 33 53 18 7 -9 11 -10 7 -3 -4 7 0 12
9 12 9 0 16 6 16 13 0 9 2 9 8 0 5 -7 20 -14 34 -15 15 -1 25 -6 22 -10 -2 -4
4 -12 13 -18 17 -11 17 -11 0 -6 -23 7 -15 -7 27 -51 17 -18 31 -36 31 -41 0
-12 32 -42 45 -42 6 0 9 -4 6 -8 -2 -4 4 -8 14 -8 10 0 16 4 14 8 -3 4 0 8 6
8 6 0 8 5 4 11 -4 8 1 9 16 4 20 -6 21 -5 9 8 -8 8 -18 12 -24 9 -5 -3 -4 1 3
10 10 13 10 17 0 22 -7 3 0 2 16 -1 19 -4 27 -2 23 5 -5 6 4 9 22 8 17 -1 28
2 25 6 -3 4 0 8 5 8 6 0 11 -6 11 -12 0 -9 3 -8 9 2 6 8 7 18 4 23 -5 9 38
-13 47 -24 8 -10 83 -33 103 -31 10 0 15 -4 11 -10 -4 -6 2 -6 15 1 29 16 27
33 -14 92 -19 28 -32 55 -29 60 3 5 2 8 -3 7 -4 -2 -8 2 -8 7 0 5 5 9 10 7 6
-1 0 6 -12 16 -14 13 -18 23 -13 33 5 8 5 16 -1 19 -16 10 110 67 217 98 161
47 270 120 442 301 103 108 246 297 155 206 -22 -22 -39 -41 -37 -43 9 -12
-92 -85 -106 -77 -5 3 -14 -5 -20 -19 -5 -14 -12 -26 -15 -26 -4 0 -3 6 1 12
6 10 5 10 -8 1 -8 -7 -18 -10 -21 -6 -4 3 -7 1 -7 -6 0 -7 -5 -9 -12 -5 -7 5
-9 2 -6 -8 7 -17 -32 -20 -44 -3 -5 6 -8 5 -8 -2 0 -7 -7 -10 -15 -7 -17 7
-21 25 -4 21 6 -1 14 4 16 11 4 11 1 12 -15 3 -11 -6 -22 -18 -26 -27 -5 -13
-9 -14 -20 -5 -11 10 -16 8 -21 -8 -3 -12 -3 -26 1 -32 3 -6 -6 -3 -20 6 -15
10 -25 24 -22 31 8 22 -2 16 -15 -7 -6 -12 -7 -19 -1 -15 5 3 12 -1 15 -9 4
-9 1 -12 -9 -8 -10 4 -13 0 -8 -13 3 -11 -4 -3 -14 16 -11 19 -18 38 -15 42 2
5 -1 8 -7 8 -12 0 -3 -47 14 -70 9 -13 9 -13 -6 -2 -13 10 -17 10 -21 0 -4 -8
-6 -7 -6 5 -1 20 -21 23 -21 3 0 -8 -5 -18 -12 -22 -7 -4 -8 -3 -4 4 4 7 2 12
-3 12 -6 0 -12 -6 -12 -12 -1 -7 -5 1 -9 17 l-8 30 -1 -28 c-1 -24 -3 -26 -21
-17 -11 6 -20 18 -21 28 0 9 -5 2 -10 -16 -7 -25 -14 -32 -26 -28 -8 4 -21 2
-28 -4 -10 -8 -13 -4 -11 18 2 28 1 29 -20 16 -20 -14 -21 -13 -16 12 4 22 2
26 -10 21 -13 -4 -14 0 -8 29 9 38 6 42 -30 40 -14 -1 -30 5 -37 14 -7 9 -12
10 -13 4 0 -7 -7 -14 -14 -17 -11 -4 -13 -1 -10 11 3 9 -2 4 -11 -11 -9 -15
-20 -25 -25 -22 -4 3 -6 -4 -3 -14 7 -26 -14 -62 -32 -55 -8 4 -15 15 -15 26
0 11 -5 16 -10 13 -14 -9 -3 42 15 71 13 20 12 21 -13 18 -28 -3 -52 11 -52
29 0 6 7 2 15 -9 14 -18 14 -17 5 9 -6 16 -8 33 -4 38 3 5 -1 9 -8 9 -8 0 -7
5 4 16 18 18 54 12 42 -7 -5 -8 1 -10 20 -7 20 4 29 0 37 -14 10 -19 11 -19
31 -1 11 10 26 31 34 48 11 25 13 26 8 5 -6 -24 -6 -24 10 -5 8 11 16 26 16
33 0 6 5 12 10 12 6 0 10 8 10 18 0 15 2 15 11 2 9 -12 9 -11 4 5 -18 50 -18
58 -4 49 9 -5 8 1 -4 19 -20 30 -14 55 8 37 11 -9 12 -7 8 9 -8 30 -22 26 -39
-11 l-15 -33 6 38 c6 35 4 37 -20 37 -14 0 -25 -4 -25 -10 0 -5 5 -10 10 -10
6 0 3 -11 -7 -24 -10 -13 -22 -21 -27 -18 -5 3 -6 -3 -2 -14 6 -15 5 -16 -5
-7 -9 9 -18 9 -40 -3 -16 -8 -29 -19 -29 -24 0 -6 -5 -10 -12 -10 -6 0 1 14
18 31 l29 31 -37 -5 c-30 -4 -39 -1 -43 13 -5 15 -8 15 -33 -8 -26 -24 -27
-27 -13 -44 15 -17 16 -17 23 -1 4 11 7 13 7 4 1 -8 7 -11 17 -7 12 4 15 2 10
-9 -3 -8 0 -14 6 -12 27 5 11 -37 -19 -52 -40 -20 -48 -39 -27 -62 12 -14 13
-22 5 -36 -8 -13 -11 -14 -10 -3 4 38 0 43 -18 29 -16 -13 -17 -12 -5 3 8 10
9 18 3 22 -6 4 -15 -3 -21 -15 -11 -20 -12 -20 -31 -3 -10 9 -19 13 -19 9 0
-5 -6 0 -14 10 -7 10 -20 16 -28 13 -11 -5 -14 3 -13 33 0 21 5 42 10 46 4 4
5 0 1 -11 -5 -16 -4 -17 9 -6 8 7 13 16 10 19 -2 4 2 8 10 8 8 0 12 -4 9 -8
-7 -12 36 -1 54 13 13 11 15 11 7 -2 -6 -12 -5 -12 5 -3 16 15 3 36 -19 28 -9
-3 -1 7 18 23 38 31 35 52 -5 47 -18 -2 -22 1 -15 8 13 13 15 30 2 23 -5 -3
-12 1 -15 10 -3 8 -2 12 4 9 6 -3 10 -2 10 4 0 5 -6 12 -13 15 -6 3 9 4 35 2
43 -3 46 -1 37 16 -5 10 -7 23 -4 28 3 6 1 10 -5 10 -20 0 -6 52 20 69 20 13
23 14 15 1 -8 -13 -6 -13 8 -1 12 10 40 12 104 8 53 -2 125 2 182 11 90 14 98
13 180 -7 96 -23 121 -26 121 -12 0 12 -36 24 -48 17 -5 -3 -31 2 -58 10 -27
8 -98 17 -159 19 -148 5 -145 5 -145 18 0 12 -105 71 -147 82 -26 7 -30 23 -9
31 7 3 19 23 26 45 7 21 17 39 22 39 4 0 7 3 6 8 -5 24 27 61 61 68 20 4 39 7
44 6 4 -1 7 5 7 14 0 8 -5 12 -10 9 -6 -3 -10 -3 -10 2 0 4 -18 17 -40 27 -63
30 -107 135 -77 184 5 6 5 12 1 12 -3 0 0 8 7 17 12 15 12 16 -1 8 -12 -6 -13
-5 -2 6 6 7 12 23 12 34 0 12 3 25 7 29 8 8 10 31 18 201 5 109 10 192 14 221
2 16 47 34 86 34 43 0 70 -32 91 -109 44 -158 106 -311 126 -311 11 0 10 7 -8
43 -16 32 -16 32 16 -6 18 -21 51 -47 73 -59 46 -23 216 -50 231 -36 6 4 17 8
25 7 11 0 10 -3 -4 -9 -18 -8 -17 -9 8 -9 15 -1 27 4 27 9 0 6 5 10 11 10 5 0
7 -4 4 -10 -3 -6 1 -7 9 -4 35 13 13 24 -48 24 -86 0 -214 18 -247 35 -34 18
-82 73 -96 111 -6 16 -24 83 -40 149 -18 74 -33 119 -41 118 -15 -4 -34 70
-26 102 4 14 16 32 28 39 29 19 96 30 96 16 0 -5 -5 -10 -11 -10 -5 0 -7 -4
-4 -10 3 -5 3 -10 -2 -10 -4 0 -8 -16 -9 -35 0 -24 4 -35 14 -35 11 0 12 -3 3
-14 -9 -11 -8 -15 6 -21 10 -5 22 -7 27 -6 5 1 17 -6 27 -15 10 -9 22 -13 28
-10 5 3 11 2 13 -3 1 -6 17 -12 33 -15 17 -2 32 -5 35 -6 3 -1 8 -2 13 -1 4 0
7 -4 7 -10 0 -6 10 -9 23 -8 12 2 28 0 35 -4 8 -5 12 -2 12 8 0 9 5 13 10 10
6 -4 8 -10 5 -15 -3 -4 4 -10 15 -13 10 -3 21 -2 23 2 2 3 3 1 1 -5 -4 -18 53
-67 70 -61 8 3 18 1 22 -5 4 -6 3 -8 -2 -5 -6 3 -16 2 -24 -4 -11 -6 -8 -9 13
-9 15 0 27 4 27 10 0 5 8 6 18 3 15 -6 16 -5 2 11 -13 16 -12 20 9 37 13 11
31 19 41 19 29 0 129 50 140 69 7 14 5 23 -8 34 -9 9 -20 16 -24 16 -5 1 -9 1
-10 2 -13 4 -50 9 -80 11 -21 2 -38 5 -38 9 0 7 -79 34 -147 50 -29 7 -50 16
-47 21 3 4 -4 8 -15 8 -29 0 -51 11 -51 24 0 7 6 13 13 14 240 19 444 -12 463
-70 3 -11 8 -17 11 -14 3 3 -2 17 -11 30 -15 24 -29 30 -171 70 l-50 15 45 1
45 2 -49 9 c-27 4 -53 13 -57 20 -4 7 -14 14 -23 15 -15 2 -86 53 -86 61 0 3
17 -7 38 -21 l37 -27 -31 27 c-24 21 -43 27 -85 30 -30 1 -81 6 -115 9 -34 3
-72 1 -88 -5 -20 -7 -25 -7 -20 1 4 8 0 9 -15 4 -14 -4 -21 -2 -21 7 0 8 -4 6
-11 -4 -5 -10 -14 -18 -19 -18 -5 0 -6 8 -3 18 6 14 4 15 -9 5 -8 -7 -18 -10
-22 -6 -4 4 -4 -1 -1 -12 7 -20 6 -20 -9 -1 -13 16 -16 17 -16 4 0 -8 -9 -23
-21 -34 -11 -10 -19 -14 -18 -9 2 6 0 20 -5 32 -6 18 -10 20 -21 10 -7 -6 -11
-20 -9 -29 4 -25 30 -59 37 -51 4 3 7 1 7 -7 0 -10 3 -10 14 -1 11 9 16 9 22
0 5 -8 3 -9 -6 -4 -9 5 -10 2 -6 -12 9 -29 -76 -53 -186 -53 -82 0 -86 1 -86
23 -2 43 -9 60 -30 71 -11 6 -20 14 -19 17 1 3 -6 13 -15 23 -17 17 -18 17
-19 -1 0 -14 -3 -13 -12 7 -7 14 -18 25 -24 26 -29 2 -34 4 -28 13 6 11 4 11
-120 11 -63 0 -86 3 -75 10 13 8 12 10 -3 10 -10 0 -26 -4 -35 -9 -9 -5 -33
-12 -53 -15 -27 -4 -36 -2 -36 9 0 8 5 11 11 8 6 -3 0 6 -14 19 -22 23 -27 24
-42 11 -9 -8 -22 -12 -29 -7 -8 4 -10 3 -5 -4 4 -7 4 -12 -1 -13 -4 0 -18 -2
-31 -3 -20 -2 -21 -1 -7 14 8 9 12 20 8 25 -5 4 0 5 10 2 9 -4 17 -2 17 3 0 5
10 14 21 21 13 6 19 7 15 1 -3 -6 2 -9 11 -7 10 2 21 4 25 4 4 1 5 7 2 15 -3
9 5 22 21 32 24 16 25 18 9 35 -9 10 -21 16 -26 13 -6 -4 -5 -10 3 -15 7 -4
11 -10 9 -13 -3 -2 -16 4 -29 15 -13 10 -18 19 -12 19 8 0 9 6 3 18 -5 9 -8
25 -7 35 2 9 -1 17 -7 17 -6 0 -8 -6 -5 -14 3 -8 1 -17 -6 -20 -9 -3 -8 -7 2
-14 11 -8 9 -12 -9 -22 -18 -9 -21 -9 -15 0 4 7 9 27 10 45 1 23 -2 32 -13 31
-8 0 -17 6 -19 14 -3 9 -1 11 4 5 4 -6 19 -12 33 -13 19 -1 21 1 10 9 -13 8
-13 11 0 22 8 6 16 23 18 37 4 24 3 25 -12 5 -8 -11 -16 -25 -16 -32 0 -6 -4
-14 -9 -18 -6 -3 -9 4 -8 15 1 11 6 20 11 20 5 0 6 3 3 7 -4 3 -2 12 4 19 7 8
6 14 -2 20 -8 5 -9 3 -4 -6 5 -9 4 -11 -4 -6 -6 4 -9 12 -5 17 3 6 9 8 12 5 3
-3 11 -1 18 5 8 6 22 8 31 5 15 -5 15 -4 -1 9 -20 15 -19 15 1 15 28 0 46 23
31 38 -9 9 -9 12 1 12 7 0 10 4 7 9 -3 5 3 11 15 14 20 5 20 6 3 34 -10 15
-14 25 -10 21 4 -3 16 1 25 10 13 13 15 22 8 36 -7 15 -5 23 9 33 10 7 14 13
9 13 -5 0 -1 6 10 13 10 8 15 19 11 26 -4 6 -1 14 7 17 15 5 17 20 5 39 -4 6
2 16 13 23 15 10 19 10 19 0 0 -9 3 -8 10 2 6 9 5 17 -3 23 -7 5 -3 6 10 2 16
-4 23 -1 28 15 5 17 10 18 27 9 16 -9 19 -8 13 2 -6 9 -2 11 13 7 12 -4 20 -2
16 3 -3 5 -2 10 3 10 4 1 17 3 28 4 11 1 38 7 60 13 22 6 58 12 80 13 22 2 45
6 50 9 20 14 52 17 69 8 9 -5 16 -5 16 0 0 5 18 8 41 7 23 -1 61 1 85 5 24 4
45 3 46 -2 2 -4 24 -10 50 -12 26 -3 53 -8 60 -12 11 -7 27 -11 66 -16 6 -1
12 -5 12 -9 0 -5 7 -6 15 -3 8 4 23 0 32 -7 20 -17 16 -17 36 0 15 12 17 11
17 -3 0 -10 4 -15 9 -11 5 3 13 0 16 -6 4 -5 13 -8 21 -5 7 3 16 1 19 -4 4 -6
19 -10 34 -10 23 0 69 -25 91 -50 3 -3 24 -20 48 -37 49 -35 147 -145 192
-213 16 -25 34 -50 39 -56 19 -22 85 -159 88 -183 2 -14 8 -32 12 -40 14 -27
28 -202 22 -278 -1 -7 -7 -13 -13 -13 -8 0 -13 -13 -13 -30 0 -18 5 -30 13
-30 22 0 29 -43 21 -121 -8 -69 -12 -80 -44 -112 -29 -29 -35 -42 -35 -76 0
-29 6 -46 22 -61 28 -26 32 -25 49 8 19 37 23 50 10 32 -12 -17 -13 -4 -2 25
4 11 17 20 29 20 23 0 31 17 11 24 -7 2 -9 -1 -4 -9 5 -9 4 -11 -4 -6 -6 4 -9
12 -6 17 8 12 35 11 35 -2 0 -5 5 -7 10 -4 6 3 10 2 10 -3 0 -6 -7 -13 -17
-16 -14 -6 -14 -8 3 -21 17 -13 17 -14 2 -15 -10 0 -18 5 -18 11 0 6 -6 9 -14
6 -8 -3 -17 -1 -20 6 -3 8 -5 6 -5 -3 0 -8 4 -22 9 -30 7 -10 10 -11 10 -2 0
8 8 10 24 6 15 -3 34 1 52 13 16 10 25 12 20 5 -8 -14 9 -42 26 -42 6 0 6 6
-1 14 -9 11 -9 16 1 22 7 4 10 4 6 -1 -14 -15 12 -35 32 -25 18 10 30 4 30
-14 0 -6 -5 -4 -10 4 -8 13 -10 13 -10 -1 0 -9 3 -18 6 -22 10 -9 54 15 47 26
-4 6 -1 7 7 2 10 -6 10 -10 -2 -19 -8 -6 -13 -18 -11 -26 4 -12 3 -12 -5 -2
-7 11 -16 9 -43 -7 -19 -12 -28 -21 -20 -21 8 0 12 -3 8 -6 -10 -10 -26 6 -21
21 4 8 9 13 13 11 4 -3 13 0 21 6 12 8 11 9 -4 4 -14 -5 -17 -2 -14 12 3 12 0
19 -9 19 -8 0 -12 -6 -9 -13 3 -8 1 -16 -4 -19 -6 -4 -10 2 -10 11 0 10 -3 15
-6 11 -4 -3 -3 -14 1 -24 8 -19 11 -28 13 -51 1 -7 6 -11 11 -7 5 3 12 -3 14
-12 4 -14 5 -13 6 5 1 22 21 33 21 11 0 -6 6 -9 13 -6 6 2 17 -3 24 -12 11
-14 12 -13 13 5 0 28 25 50 36 33 4 -7 3 -9 -4 -5 -7 4 -9 -5 -5 -31 8 -49 13
-55 13 -13 0 33 0 33 21 14 19 -17 19 -19 3 -24 -13 -5 -14 -9 -6 -14 7 -4 10
-12 6 -17 -3 -5 -10 -6 -16 -3 -7 4 -8 2 -4 -5 6 -9 11 -9 22 0 7 6 11 15 8
20 -3 5 2 12 11 16 17 6 38 -14 29 -28 -2 -4 1 -11 8 -15 7 -4 10 -4 6 1 -4 4
-2 15 5 23 9 13 9 14 0 8 -17 -9 -16 4 1 27 7 9 22 17 32 16 16 0 15 -2 -5
-10 -18 -7 -21 -12 -12 -23 8 -10 9 -16 1 -21 -13 -8 -13 -35 0 -35 5 0 7 8 3
18 -6 15 -3 14 17 -3 13 -11 20 -14 16 -7 -4 6 -2 12 4 12 6 0 9 4 5 10 -3 5
-13 6 -22 3 -12 -5 -14 -3 -8 6 4 8 2 17 -6 22 -11 6 -9 9 8 9 12 0 28 7 37
15 8 8 20 15 26 15 6 0 8 5 4 12 -5 7 -3 8 6 3 10 -6 10 -11 -4 -20 -14 -11
-14 -14 -2 -18 17 -7 41 17 32 32 -3 5 3 7 14 4 17 -5 18 -7 6 -17 -15 -12
-17 -98 -3 -113 5 -4 5 0 1 10 -3 10 -1 17 5 17 6 0 11 -4 11 -10 0 -5 5 -10
12 -10 9 0 9 3 0 12 -14 14 -16 32 -2 23 7 -4 7 2 0 19 -7 20 -6 24 5 19 8 -3
15 -9 15 -14 0 -5 4 -9 10 -9 5 0 7 8 4 18 -4 11 1 8 15 -8 24 -29 28 -48 6
-30 -21 18 -19 3 4 -21 17 -19 19 -19 32 -2 13 16 12 17 -3 4 -19 -15 -23 -5
-8 19 6 10 3 20 -11 33 -11 11 -17 22 -14 25 4 4 11 -1 16 -11 6 -9 14 -17 20
-17 5 0 2 11 -7 25 -10 15 -12 25 -5 25 6 0 11 -7 11 -15 0 -13 2 -14 14 -3 8
7 12 15 11 18 -2 3 4 6 14 6 12 0 18 -8 17 -23 -1 -13 4 -22 9 -20 6 1 9 11 8
22 -1 11 1 14 3 8 8 -19 21 -16 27 7 3 11 11 20 19 20 11 0 11 -2 0 -9 -17
-10 -14 -21 12 -44 12 -10 14 -15 6 -11 -26 14 -42 13 -58 -2 -10 -11 -18 -12
-25 -5 -14 14 -30 14 -22 1 3 -6 -1 -7 -9 -4 -18 7 -23 -21 -6 -31 5 -3 7 0 5
7 -4 9 2 14 15 15 11 1 18 -2 15 -7 -3 -5 -1 -12 5 -15 6 -4 9 -3 8 2 -2 4 2
8 7 8 5 0 9 -3 8 -7 -1 -3 4 -9 13 -12 9 -4 12 -2 8 5 -4 6 0 16 7 21 11 8 10
8 -4 4 -12 -4 -17 -2 -14 6 5 14 9 14 46 3 22 -7 23 -5 17 21 -5 21 -4 25 3
14 6 -8 13 -34 17 -57 3 -24 10 -43 14 -43 5 0 4 15 -1 32 -5 18 -9 33 -9 34
0 1 45 -3 63 -5 10 -1 9 -31 -2 -31 -5 0 -12 8 -15 18 -4 13 -4 13 -3 -3 1
-11 -2 -26 -6 -32 -5 -8 -3 -13 3 -13 7 0 10 -7 6 -15 -3 -8 -1 -15 3 -15 14
0 21 28 8 34 -8 3 -6 8 6 16 9 6 17 18 17 25 0 8 4 15 10 15 5 0 3 -20 -5 -46
-15 -51 -6 -51 11 -1 10 31 54 53 54 27 0 -7 -7 -10 -15 -6 -8 3 -15 1 -15 -4
0 -6 6 -10 14 -10 21 0 31 -21 15 -32 -12 -8 -11 -9 1 -5 8 2 23 0 34 -5 13
-7 21 -6 27 3 6 10 9 7 10 -11 0 -14 3 -19 6 -12 2 6 10 9 16 5 7 -3 4 3 -5
14 -22 24 -25 51 -5 34 8 -6 17 -8 20 -4 4 3 7 -3 7 -15 0 -12 4 -22 10 -22 5
0 9 3 9 8 -3 20 2 32 16 32 8 0 15 -6 15 -14 0 -8 4 -17 9 -20 5 -4 8 2 6 11
-2 10 -4 23 -4 30 -1 11 -31 10 -50 -2 -5 -3 -12 -1 -16 5 -3 5 1 10 9 10 9 0
16 5 16 10 0 7 -8 6 -22 -2 -13 -7 -29 -12 -37 -13 -8 0 -15 -8 -17 -18 -3
-25 -7 -27 -22 -18 -7 4 -14 21 -16 37 -2 22 -10 31 -34 39 -36 12 -54 26 -24
18 17 -4 20 -1 16 19 -4 20 -3 19 6 -4 7 -15 24 -32 43 -39 24 -9 28 -13 15
-16 -10 -3 -18 -9 -18 -14 0 -14 17 -11 33 5 11 11 17 12 26 3 8 -8 11 -8 11
1 0 7 -11 17 -25 22 -14 5 -25 15 -25 22 0 8 3 9 8 3 4 -6 20 -17 36 -25 23
-12 30 -12 33 -2 3 8 11 5 24 -10 l19 -23 -10 27 c-6 19 -6 29 2 34 6 4 8 3 4
-4 -3 -6 -2 -13 3 -16 5 -3 11 4 14 16 4 12 9 19 13 15 4 -3 -1 -18 -10 -31
-8 -14 -12 -27 -7 -31 5 -3 12 1 14 7 4 10 6 9 6 -1 1 -10 4 -11 15 -2 10 8
16 9 21 1 3 -5 -1 -10 -9 -10 -9 0 -16 -5 -16 -11 0 -5 5 -7 12 -3 7 5 8 3 3
-6 -6 -10 -11 -9 -23 6 -8 10 -12 13 -10 5 2 -8 15 -21 28 -30 14 -10 21 -11
16 -3 -5 8 -1 12 11 12 15 0 16 2 3 10 -12 8 -13 12 -2 19 11 6 10 11 -2 24
-15 14 -14 16 4 14 12 -1 18 -7 16 -14 -3 -6 0 -14 7 -17 9 -3 8 -5 -1 -5 -7
-1 -10 -6 -7 -12 5 -7 14 -4 28 8 12 9 16 11 10 3 -20 -22 -15 -29 20 -24 26
4 29 3 14 -6 -26 -16 -57 -20 -57 -8 0 6 -9 3 -20 -7 -11 -10 -20 -23 -19 -29
0 -6 3 -6 6 2 7 18 23 15 24 -5 0 -14 2 -13 9 5 11 26 25 30 16 5 -5 -16 -5
-16 6 -2 7 9 23 21 36 28 12 7 20 16 17 22 -4 5 -1 9 6 9 7 0 10 2 7 5 -3 3
-18 1 -34 -5 -23 -9 -26 -9 -17 1 9 9 9 18 2 33 -9 18 -7 17 9 -3 14 -17 21
-20 27 -11 6 9 9 9 15 0 5 -8 11 -8 21 3 8 7 20 12 27 9 8 -2 10 3 6 15 -3 10
-2 14 3 8 4 -5 15 -16 24 -23 14 -11 16 -8 15 25 -1 21 -5 44 -10 52 -6 10 -6
12 2 7 9 -5 12 290 12 1198 l0 1206 -2560 0 -2560 0 0 -973z m2045 -429 c-9
-6 -19 -7 -22 -4 -4 3 -1 6 6 6 7 0 9 4 6 10 -4 6 1 7 11 3 15 -6 15 -7 -1
-15z m-28 -330 c2 -17 0 -19 -7 -8 -5 8 -6 18 -4 22 8 12 10 10 11 -14z
m-1542 -127 c3 -5 2 -12 -3 -15 -5 -3 -9 1 -9 9 0 17 3 19 12 6z m-90 -11 c-3
-5 -12 -10 -18 -10 -7 0 -6 4 3 10 19 12 23 12 15 0z m206 -23 c-10 -9 -11 -8
-5 6 3 10 9 15 12 12 3 -3 0 -11 -7 -18z m824 14 c3 -5 2 -12 -3 -15 -5 -3 -9
1 -9 9 0 17 3 19 12 6z m-1288 -23 c2 -17 0 -19 -7 -8 -5 8 -6 18 -4 22 8 12
10 10 11 -14z m266 7 c-3 -9 -8 -14 -10 -11 -3 3 -2 9 2 15 9 16 15 13 8 -4z
m54 0 c0 -8 -4 -12 -9 -9 -5 3 -6 10 -3 15 9 13 12 11 12 -6z m208 7 c-3 -3 0
-11 6 -19 17 -20 5 -16 -14 5 -15 16 -15 19 -2 19 8 0 13 -3 10 -5z m75 3 c0
-2 -6 -8 -13 -14 -10 -8 -14 -7 -14 2 0 8 6 14 14 14 7 0 13 -1 13 -2z m118
-9 c-10 -7 -14 -17 -10 -21 4 -5 1 -5 -7 0 -12 7 -11 10 4 22 24 17 36 17 13
-1z m-478 -5 c0 -5 -7 -12 -16 -15 -14 -5 -15 -4 -4 9 14 17 20 19 20 6z
m-265 -12 c11 -16 1 -19 -13 -3 -7 8 -8 14 -3 14 5 0 13 -5 16 -11z m108 -2
c3 -8 -1 -14 -8 -14 -7 0 -11 6 -8 14 3 7 6 13 8 13 2 0 5 -6 8 -13z m282 -12
c-2 -29 -11 -43 -12 -17 -1 18 4 42 10 42 1 0 2 -11 2 -25z m690 15 c-3 -5
-12 -10 -18 -10 -7 0 -6 4 3 10 19 12 23 12 15 0z m1650 0 c-3 -5 -12 -10 -18
-10 -7 0 -6 4 3 10 19 12 23 12 15 0z m-1410 -9 c3 -5 2 -12 -3 -15 -5 -3 -9
1 -9 9 0 17 3 19 12 6z m-1033 -25 c4 3 9 1 12 -4 3 -6 -1 -9 -10 -8 -9 1 -21
11 -26 22 -9 18 -8 18 5 2 8 -10 16 -15 19 -12z m663 15 c-3 -2 -16 -6 -28 -8
-15 -2 -18 0 -9 5 14 9 45 12 37 3z m243 -16 c-3 -3 -9 2 -12 12 -6 14 -5 15
5 6 7 -7 10 -15 7 -18z m-1149 2 c8 -10 7 -14 -2 -14 -8 0 -14 6 -14 14 0 7 1
13 2 13 2 0 8 -6 14 -13z m86 3 c-3 -5 1 -10 9 -10 22 0 20 -19 -5 -55 -19
-28 -20 -28 -13 -5 6 23 6 24 -11 10 -11 -8 -16 -10 -12 -3 4 6 4 13 0 16 -5
2 -2 2 6 0 8 -2 11 2 7 12 -3 9 -2 13 4 10 6 -3 10 -1 10 4 0 6 -6 11 -12 11
-9 0 -8 4 2 10 19 12 23 12 15 0z m387 -20 c7 0 7 4 0 13 -8 10 -6 13 11 14
17 2 19 0 7 -7 -8 -5 -11 -10 -5 -10 5 0 4 -5 -3 -12 -13 -13 -42 5 -42 26 0
6 5 3 11 -6 5 -10 15 -18 21 -18z m83 18 c5 4 5 1 1 -6 -6 -10 -11 -10 -22 -1
-8 6 -14 14 -14 16 0 3 6 0 13 -6 8 -6 18 -7 22 -3z m145 8 c0 -2 -7 -7 -16
-10 -8 -3 -12 -2 -9 4 6 10 25 14 25 6z m137 -13 c2 -6 -4 -13 -13 -17 -14 -5
-15 -4 -5 8 8 10 9 16 1 19 -6 3 -5 4 2 3 6 -1 13 -7 15 -13z m-873 -1 c3 -5
-1 -9 -9 -9 -8 0 -12 4 -9 9 3 4 7 8 9 8 2 0 6 -4 9 -8z m793 -12 c4 -12 3
-13 -5 -1 -5 7 -14 11 -20 7 -6 -3 -13 -2 -16 2 -3 5 4 9 16 8 12 0 23 -8 25
-16z m535 3 c6 9 8 9 8 0 0 -20 -15 -23 -43 -8 -14 7 -29 10 -33 7 -4 -4 -4
-2 0 5 5 9 13 8 33 -2 21 -11 29 -12 35 -2z m-1159 -8 c-3 -9 -8 -14 -10 -11
-3 3 -2 9 2 15 9 16 15 13 8 -4z m391 7 c3 -5 -1 -9 -9 -9 -8 0 -12 4 -9 9 3
4 7 8 9 8 2 0 6 -4 9 -8z m273 1 c-4 -3 -2 -12 4 -20 9 -9 8 -13 0 -13 -6 0
-20 -14 -30 -30 l-18 -30 -19 22 c-19 21 -19 21 1 15 20 -7 20 -7 0 8 -11 9
-25 13 -32 11 -7 -3 -15 -1 -18 5 -4 5 -11 7 -16 4 -5 -4 -9 -4 -9 -1 0 3 9
10 20 16 17 9 19 8 13 -7 -6 -16 -5 -16 10 -4 12 9 17 10 17 2 0 -7 5 -9 10
-6 6 3 10 1 10 -4 0 -14 43 -7 48 7 2 7 -2 12 -10 12 -10 0 -9 3 2 10 17 11
26 13 17 3z m76 -1 c-10 -6 -10 -12 2 -28 11 -14 15 -16 15 -4 0 12 3 11 11
-3 6 -10 8 -21 5 -24 -3 -4 -6 -1 -6 6 0 7 -4 10 -9 6 -5 -3 -16 4 -24 15 -7
11 -17 17 -20 13 -4 -3 -2 -12 4 -20 8 -8 8 -13 1 -13 -6 0 -12 6 -15 13 -5
14 21 47 37 47 7 0 6 -3 -1 -8z m480 -12 c-3 -11 -7 -20 -9 -20 -2 0 -4 9 -4
20 0 11 4 20 9 20 5 0 7 -9 4 -20z m75 -11 c-3 -8 -7 -3 -11 10 -4 17 -3 21 5
13 5 -5 8 -16 6 -23z m-1503 2 c-3 -6 -11 -8 -17 -5 -6 4 -5 9 3 15 16 10 23
4 14 -10z m1185 15 c0 -2 -7 -7 -16 -10 -8 -3 -12 -2 -9 4 6 10 25 14 25 6z
m-40 -25 c0 -6 -4 -12 -8 -15 -5 -3 -9 1 -9 9 0 8 4 15 9 15 4 0 8 -4 8 -9z
m-1135 -12 c-7 -11 -35 -12 -35 -1 0 4 9 8 20 9 11 1 18 -2 15 -8z m565 -29
c35 0 39 -15 9 -31 -12 -6 -19 -7 -15 -1 8 13 -19 23 -31 11 -6 -6 -15 -4 -24
7 -13 16 -12 17 6 11 19 -7 19 -6 2 7 -13 10 -15 15 -5 19 7 2 17 -2 21 -9 4
-8 21 -14 37 -14z m163 13 c-21 -8 -15 -33 8 -33 11 0 17 5 14 10 -3 6 -1 10
4 10 14 0 14 -13 -1 -28 -13 -13 -48 2 -48 21 0 16 22 39 29 30 3 -3 0 -8 -6
-10z m-166 1 c-3 -3 -12 -4 -19 -1 -8 3 -5 6 6 6 11 1 17 -2 13 -5z m210 0
c-3 -3 -12 -4 -19 -1 -8 3 -5 6 6 6 11 1 17 -2 13 -5z m187 -11 c4 -5 13 -8
19 -8 5 0 12 -6 15 -12 2 -7 -1 -13 -8 -13 -6 0 -8 -4 -5 -10 3 -5 1 -10 -4
-10 -6 0 -11 9 -11 20 0 10 -8 24 -17 29 -10 6 -13 11 -7 11 6 0 14 -3 18 -7z
m1145 -12 c20 -20 20 -20 -27 -26 -26 -4 -65 -13 -87 -20 -44 -14 -74 -3 -55
20 5 6 6 15 2 20 -4 4 0 6 8 3 8 -3 21 1 28 9 21 21 108 17 131 -6z m-1305 -7
c9 -8 13 -20 10 -25 -3 -6 -12 -2 -20 8 -24 32 -17 44 10 17z m-786 -8 c-2 -1
-12 -8 -23 -16 -18 -14 -19 -13 -8 1 7 9 10 19 6 23 -4 4 1 4 10 0 10 -3 17
-7 15 -8z m1327 -26 c3 -5 1 -10 -4 -10 -6 0 -11 5 -11 10 0 6 2 10 4 10 3 0
8 -4 11 -10z m769 -9 c7 -11 -22 -23 -35 -15 -5 3 -9 9 -9 15 0 12 37 12 44 0z
m998 -23 c53 -30 38 -39 -35 -21 -34 8 -70 16 -80 18 -27 6 -38 15 -31 27 10
15 102 0 146 -24z m-1584 -45 c3 -30 1 -33 -22 -33 -23 0 -26 4 -26 36 0 31 3
35 23 32 17 -2 23 -11 25 -35z m2208 -92 c-9 -8 -18 -12 -22 -9 -9 10 3 25 21
25 14 0 14 -2 1 -16z m61 -43 c-3 -8 -6 -5 -6 6 -1 11 2 17 5 13 3 -3 4 -12 1
-19z m-2260 -30 c-3 -8 -6 -5 -6 6 -1 11 2 17 5 13 3 -3 4 -12 1 -19z m2643
-18 c0 -5 -2 -10 -4 -10 -3 0 -8 5 -11 10 -3 6 -1 10 4 10 6 0 11 -4 11 -10z
m-288 -7 c-10 -4 -10 -8 -1 -19 6 -8 15 -12 19 -9 7 4 7 -11 0 -35 -1 -3 -5 5
-11 18 -5 13 -13 21 -18 18 -7 -5 -8 11 -2 32 1 1 7 2 14 1 9 0 9 -2 -1 -6z
m642 -9 c3 -8 2 -12 -4 -9 -6 3 -10 10 -10 16 0 14 7 11 14 -7z m-534 -19 c14
-19 14 -19 -2 -6 -10 7 -18 18 -18 24 0 6 1 8 3 6 1 -2 9 -13 17 -24z m-40
-19 c-11 -11 -1 -38 11 -30 5 3 6 -3 2 -12 -6 -16 -8 -15 -16 4 -6 12 -14 22
-19 22 -4 0 -7 10 -7 23 1 17 2 18 6 4 2 -9 8 -15 13 -12 5 3 7 13 4 23 -5 14
-4 15 5 2 6 -9 6 -19 1 -24z m98 4 c7 -11 11 -20 9 -20 -2 0 -12 9 -22 20 -10
11 -14 20 -9 20 5 0 15 -9 22 -20z m798 8 c4 -7 4 -10 -1 -6 -4 4 -13 4 -19
-2 -7 -5 -17 -5 -26 2 -12 8 -12 9 2 4 10 -3 20 -1 23 4 8 13 12 13 21 -2z
m99 2 c-3 -5 -12 -10 -18 -10 -7 0 -6 4 3 10 19 12 23 12 15 0z m-1138 -21 c2
-17 -1 -18 -13 -8 -13 11 -10 20 11 29 1 0 1 -9 2 -21z m43 17 c0 -2 -8 -10
-17 -17 -16 -13 -17 -12 -4 4 13 16 21 21 21 13z m398 -21 c-3 -3 -9 2 -12 12
-6 14 -5 15 5 6 7 -7 10 -15 7 -18z m-2212 -9 c14 4 13 1 -6 -14 -22 -18 -22
-20 -5 -19 22 2 29 -28 12 -51 -7 -8 -7 -16 0 -23 8 -8 13 -7 18 2 5 8 4 10
-3 5 -7 -4 -12 -3 -12 2 0 14 42 23 55 12 6 -5 11 -22 10 -37 0 -15 4 -31 9
-35 32 -22 -316 -31 -401 -9 -55 13 -103 44 -103 64 0 7 5 4 11 -6 12 -21 68
-47 96 -46 16 0 16 1 -2 9 -11 5 -14 9 -6 9 8 1 11 7 7 17 -5 14 -4 15 7 5 12
-9 14 -6 11 21 -2 18 1 35 8 40 7 4 13 13 13 19 0 7 12 16 27 20 21 5 25 4 21
-8 -3 -8 7 -3 22 11 23 22 31 24 43 14 12 -10 16 -10 19 0 3 6 9 12 14 12 6 0
8 -3 6 -7 -8 -12 46 -8 68 5 16 9 22 8 31 -4 7 -8 19 -12 30 -8z m2174 9 c-7
-9 -15 -13 -19 -10 -3 3 1 10 9 15 21 14 24 12 10 -5z m-175 -5 c3 -6 -1 -7
-9 -4 -18 7 -21 14 -7 14 6 0 13 -4 16 -10z m470 -28 c-6 -7 -34 11 -29 19 3
5 11 3 19 -4 7 -6 12 -13 10 -15z m-571 3 c3 -8 3 -15 0 -15 -3 0 -12 7 -20
15 -13 13 -13 15 -1 15 8 0 17 -7 21 -15z m526 -5 c6 -11 8 -20 6 -20 -3 0
-10 9 -16 20 -6 11 -8 20 -6 20 3 0 10 -9 16 -20z m-305 3 c-11 -3 -23 -10
-27 -17 -5 -7 -8 -5 -8 7 0 12 7 17 28 16 21 -1 22 -2 7 -6z m-2411 -11 c2 -4
-5 -9 -17 -9 -17 -2 -19 0 -7 7 18 12 18 12 24 2z m2396 -32 c0 -5 -4 -10 -10
-10 -5 0 -10 5 -10 10 0 6 5 10 10 10 6 0 10 -4 10 -10z m-2415 -20 c3 -5 2
-10 -4 -10 -5 0 -17 -3 -27 -7 -16 -6 -17 -5 -4 10 17 19 26 21 35 7z m-25
-36 c0 -8 -19 -13 -24 -6 -3 5 1 9 9 9 8 0 15 -2 15 -3z m378 -96 c-17 -4 -18
-6 -5 -7 12 -1 15 -5 10 -13 -4 -7 -8 -17 -8 -23 0 -5 -7 -10 -15 -10 -8 -1
-14 -6 -13 -13 2 -6 -3 -9 -10 -7 -6 3 -19 1 -27 -5 -13 -8 -13 -11 -1 -22 8
-7 11 -8 7 -1 -4 7 5 11 29 10 23 -1 31 -4 22 -10 -9 -7 -9 -10 0 -14 9 -3 10
-10 3 -24 -6 -10 -8 -19 -5 -19 3 0 -1 -10 -10 -23 -8 -13 -12 -28 -8 -33 5
-5 -3 0 -16 11 -14 11 -22 15 -18 9 8 -14 -21 -56 -34 -48 -5 3 -8 0 -7 -7 4
-15 61 -76 68 -73 10 5 65 -51 68 -69 4 -24 -24 -67 -44 -67 -8 0 -13 -4 -10
-8 2 -4 -18 -19 -46 -32 -27 -13 -54 -33 -58 -44 -5 -12 -9 -16 -9 -9 -1 14
-32 6 -43 -11 -5 -7 -8 -3 -8 9 0 12 -3 16 -8 9 -12 -18 -40 -24 -46 -9 -3 10
0 12 12 9 9 -3 3 3 -14 13 -22 13 -31 25 -29 41 1 13 -2 25 -7 28 -4 3 -6 9
-3 14 3 5 1 11 -5 15 -6 4 -7 11 -4 17 4 7 2 8 -4 4 -7 -4 -12 -2 -12 4 0 6
-5 8 -11 4 -8 -4 -8 0 0 15 9 16 9 21 0 21 -9 0 -9 3 0 14 9 11 8 17 -4 29 -8
9 -15 20 -15 26 0 6 -6 11 -14 11 -20 0 -29 17 -15 26 8 5 9 3 4 -6 -5 -9 -4
-11 4 -6 12 8 8 18 -18 51 -16 19 -15 19 10 3 25 -16 28 -16 45 3 10 11 14 20
9 19 -22 -5 -26 1 -11 16 9 8 14 19 11 24 -3 5 0 12 6 16 8 4 9 3 5 -4 -4 -7
-2 -12 3 -12 6 0 11 6 11 13 0 8 4 7 10 -3 9 -13 10 -13 10 0 0 13 1 13 10 0
8 -13 10 -13 10 2 0 12 6 15 22 10 16 -4 19 -2 13 9 -7 11 -6 12 7 2 8 -7 18
-10 22 -6 3 4 14 8 24 9 9 2 18 7 20 12 1 5 15 7 29 4 24 -4 25 -3 12 10 -10
11 -16 13 -21 4 -4 -6 -8 -7 -8 -2 0 6 -5 5 -12 -2 -16 -16 -31 -15 -22 1 5 8
2 7 -9 -2 -22 -17 -97 -23 -97 -7 0 7 -3 7 -8 1 -9 -13 -62 -17 -62 -4 0 5 -6
9 -14 9 -19 0 -22 11 -18 63 l4 42 194 0 c108 0 185 -3 172 -7z m-328 -213 c0
-12 -19 -12 -23 0 -4 9 -1 12 9 8 7 -3 14 -7 14 -8z m37 -232 c-4 -3 -2 -12 4
-20 9 -9 8 -13 0 -13 -6 0 -11 2 -11 4 0 2 -3 11 -6 20 -4 10 -1 16 7 16 7 0
9 -3 6 -7z m271 -188 c-2 -19 1 -36 7 -38 7 -3 7 -8 -1 -18 -5 -8 -10 -21 -9
-29 0 -8 -7 -21 -17 -28 -10 -7 -15 -19 -11 -29 5 -13 2 -15 -12 -10 -15 6
-16 5 -5 -8 7 -9 10 -18 6 -22 -3 -3 -6 -1 -6 6 0 7 -4 9 -10 6 -5 -3 -10 -1
-10 5 0 6 -5 8 -12 4 -7 -5 -9 -2 -5 9 4 11 2 14 -8 11 -10 -4 -12 0 -8 15 5
20 -10 30 -20 14 -2 -5 -2 -2 0 5 1 8 3 25 3 38 0 14 6 24 15 24 8 0 33 18 57
40 24 22 45 40 47 40 2 0 1 -16 -1 -35z m-141 -120 c0 -8 -6 -16 -14 -19 -11
-4 -11 -1 -3 14 13 24 17 25 17 5z m407 -289 c-7 -19 -25 -22 -21 -3 2 12 19
28 24 23 2 -2 1 -11 -3 -20z m229 -172 c-4 -11 -9 -12 -19 -3 -18 15 -18 14 5
16 14 1 18 -3 14 -13z m-2062 -707 c-6 -8 -8 -17 -4 -20 3 -4 1 -7 -5 -7 -15
0 -15 13 0 28 16 16 23 15 9 -1z m1737 -12 c-3 -3 -9 2 -12 12 -6 14 -5 15 5
6 7 -7 10 -15 7 -18z m-1523 -16 c-4 -5 -12 -9 -18 -8 -9 0 -8 2 1 6 6 2 9 10
6 15 -4 7 -2 8 5 4 6 -4 9 -12 6 -17z m-260 1 c-3 -5 -12 -10 -18 -10 -7 0 -6
4 3 10 19 12 23 12 15 0z m-90 -20 c-3 -5 -12 -10 -18 -10 -7 0 -6 4 3 10 19
12 23 12 15 0z m395 -50 c0 -5 -7 -10 -16 -10 -8 0 -12 5 -9 10 3 6 10 10 16
10 5 0 9 -4 9 -10z m536 -16 c1 -9 0 -13 -4 -10 -3 4 -7 14 -8 22 -1 9 0 13 4
10 3 -4 7 -14 8 -22z m-476 -4 c0 -5 -4 -10 -10 -10 -5 0 -10 5 -10 10 0 6 5
10 10 10 6 0 10 -4 10 -10z m538 -99 l-1 -28 -23 20 c-29 25 -29 27 -4 22 11
-2 20 0 20 6 0 5 2 9 4 9 3 0 4 -13 4 -29z m-398 -23 c0 -14 -17 -9 -31 9 -12
14 -12 16 0 8 11 -6 13 -4 8 11 -7 18 -7 18 8 0 8 -11 15 -23 15 -28z m18 -37
c3 -10 0 -10 -17 -2 -25 14 -27 20 -4 17 9 -2 19 -8 21 -15z m112 -31 c0 -5
-5 -10 -11 -10 -5 0 -7 5 -4 10 3 6 8 10 11 10 2 0 4 -4 4 -10z m920 -92 c13
2 13 1 1 -7 -16 -10 -44 0 -57 20 -4 6 3 6 17 -2 13 -7 31 -12 39 -11z m65
-28 c-3 -5 -12 -10 -18 -10 -7 0 -6 4 3 10 19 12 23 12 15 0z"/>
<path d="M236 3143 c-6 -14 -5 -15 5 -6 7 7 10 15 7 18 -3 3 -9 -2 -12 -12z"/>
<path d="M1860 2311 c0 -6 4 -13 10 -16 6 -3 7 1 4 9 -7 18 -14 21 -14 7z"/>
<path d="M2125 2309 c-4 -6 -5 -12 -2 -15 2 -3 7 2 10 11 7 17 1 20 -8 4z"/>
<path d="M2005 3660 c-3 -5 -1 -10 4 -10 6 0 11 5 11 10 0 6 -2 10 -4 10 -3 0
-8 -4 -11 -10z"/>
<path d="M2025 3541 c-6 -11 13 -26 22 -17 4 3 1 6 -6 6 -7 0 -9 5 -6 10 3 6
4 10 1 10 -3 0 -7 -4 -11 -9z"/>
<path d="M2067 3529 c7 -7 15 -10 18 -7 3 3 -2 9 -12 12 -14 6 -15 5 -6 -5z"/>
<path d="M2095 3510 c-4 -6 -11 -8 -16 -4 -5 3 -9 2 -8 -3 1 -4 1 -15 0 -23
-1 -13 -2 -13 -11 0 -8 13 -12 12 -27 -4 -13 -14 -13 -16 -2 -8 13 10 21 8 42
-12 21 -20 28 -22 37 -11 12 15 -3 30 -20 20 -5 -3 -10 1 -10 9 0 8 6 14 13
12 6 -1 8 -1 4 2 -4 2 -3 10 4 18 6 8 9 14 6 14 -3 0 -9 -5 -12 -10z"/>
<path d="M2050 3400 c0 -5 5 -10 10 -10 6 0 10 5 10 10 0 6 -4 10 -10 10 -5 0
-10 -4 -10 -10z"/>
<path d="M387 3116 c-4 -9 -11 -14 -17 -11 -6 4 -7 -1 -3 -11 5 -13 3 -15 -7
-9 -9 6 -11 4 -5 -5 6 -10 4 -12 -9 -7 -10 4 -27 7 -37 7 -11 0 -17 5 -14 10
3 6 1 10 -4 10 -20 0 -11 -16 22 -40 18 -14 26 -16 18 -7 -17 21 -3 22 20 1
13 -12 19 -12 25 -3 4 8 3 10 -4 5 -17 -11 -15 9 3 24 16 13 18 9 15 -27 -1
-18 2 -21 16 -16 11 4 13 8 6 11 -7 2 -12 8 -12 13 0 4 8 6 18 2 14 -5 14 -3
-2 9 -19 15 -19 17 -3 32 20 21 23 33 3 17 -11 -9 -15 -9 -18 1 -3 8 -7 6 -11
-6z"/>
<path d="M100 3100 c0 -5 7 -10 15 -10 8 0 15 -4 15 -10 0 -5 5 -10 11 -10 14
0 2 18 -22 30 -13 7 -19 7 -19 0z"/>
<path d="M1282 3093 c-28 -19 -70 -25 -93 -12 -11 6 -20 5 -24 -1 -3 -5 1 -10
10 -10 10 0 13 -5 9 -12 -5 -8 -2 -9 10 -5 14 6 15 4 5 -16 -9 -17 -9 -20 1
-10 7 6 19 9 26 6 8 -3 14 0 14 6 0 6 8 11 18 11 15 0 15 2 2 10 -11 8 -9 9
11 5 22 -5 27 -2 32 16 8 29 7 30 -21 12z"/>
<path d="M1456 3084 c3 -16 1 -23 -6 -19 -6 3 -7 0 -4 -10 4 -10 13 -13 25
-10 15 5 17 3 12 -12 -6 -16 -5 -16 8 -3 18 18 19 68 2 75 -8 2 -13 -3 -13
-13 0 -10 6 -24 13 -32 10 -12 9 -12 -5 -1 -10 7 -18 19 -18 27 0 7 -4 15 -9
19 -6 3 -8 -6 -5 -21z"/>
<path d="M160 3075 c0 -8 4 -15 10 -15 5 0 7 7 4 15 -4 8 -8 15 -10 15 -2 0
-4 -7 -4 -15z"/>
<path d="M450 3078 c0 -10 9 -9 35 2 17 8 16 8 -7 7 -16 -1 -28 -5 -28 -9z"/>
<path d="M1100 3075 c0 -2 7 -11 16 -19 12 -12 12 -16 2 -16 -10 0 -9 -3 2
-10 25 -16 30 -11 18 14 -9 21 -38 44 -38 31z"/>
<path d="M185 3048 l-20 -21 21 11 c12 6 24 8 28 4 4 -3 4 1 0 11 -3 9 -7 17
-8 16 0 0 -10 -10 -21 -21z"/>
<path d="M276 3055 c4 -11 7 -28 8 -38 0 -16 2 -17 12 -3 6 9 14 13 18 9 4 -4
4 1 0 12 -5 13 -9 15 -12 5 -3 -9 -9 -5 -19 11 -10 16 -12 18 -7 4z"/>
<path d="M551 3061 c-8 -5 -9 -11 -3 -15 5 -3 12 1 16 9 6 17 6 18 -13 6z"/>
<path d="M935 3060 c3 -5 8 -10 11 -10 2 0 4 5 4 10 0 6 -5 10 -11 10 -5 0 -7
-4 -4 -10z"/>
<path d="M473 3033 c0 -10 4 -10 16 -1 9 7 18 13 20 15 2 1 -5 1 -16 0 -11 0
-20 -7 -20 -14z"/>
<path d="M845 3039 c-4 -6 -5 -12 -2 -15 2 -3 7 2 10 11 7 17 1 20 -8 4z"/>
<path d="M1270 3039 c0 -5 -4 -7 -10 -4 -5 3 -10 1 -10 -5 0 -15 32 -9 38 8 2
6 -1 12 -7 12 -6 0 -11 -5 -11 -11z"/>
<path d="M523 3019 c-2 -23 3 -25 10 -4 4 8 3 16 -1 19 -4 3 -9 -4 -9 -15z"/>
<path d="M1330 3029 c0 -5 -6 -7 -12 -3 -7 4 -9 3 -5 -1 13 -15 34 -14 34 1 0
8 -4 14 -9 14 -4 0 -8 -5 -8 -11z"/>
<path d="M615 3020 c-3 -6 1 -7 9 -4 18 7 21 14 7 14 -6 0 -13 -4 -16 -10z"/>
<path d="M916 3013 c-6 -14 -5 -15 5 -6 7 7 10 15 7 18 -3 3 -9 -2 -12 -12z"/>
<path d="M1218 3017 c7 -8 9 -16 6 -19 -2 -3 2 -8 9 -11 11 -4 13 0 10 13 -3
10 -12 21 -20 25 -12 4 -13 3 -5 -8z"/>
<path d="M1461 3014 c0 -11 3 -14 6 -6 3 7 2 16 -1 19 -3 4 -6 -2 -5 -13z"/>
<path d="M1035 3010 c-3 -6 1 -7 9 -4 18 7 21 14 7 14 -6 0 -13 -4 -16 -10z"/>
<path d="M1293 3013 c4 -6 3 -14 -3 -18 -5 -3 -10 0 -10 7 0 8 -5 6 -11 -5
-15 -26 -3 -34 19 -14 18 16 20 16 35 -1 10 -10 15 -22 12 -25 -3 -4 -2 -4 3
-1 4 3 7 11 7 17 0 5 5 12 12 14 8 3 11 -3 8 -16 -2 -11 0 -23 3 -25 4 -3 8
13 7 34 0 37 -1 38 -19 22 -22 -21 -19 -21 -47 3 -12 11 -19 15 -16 8z"/>
<path d="M1154 2998 c8 -4 25 -4 38 1 20 8 18 9 -15 8 -24 -1 -32 -4 -23 -9z"/>
<path d="M3545 2915 c2 -137 -11 -268 -31 -311 -18 -38 -77 -73 -122 -74 -13
0 -21 -4 -18 -9 3 -5 -15 -6 -39 -3 -31 3 -45 1 -45 -7 0 -8 -8 -10 -22 -6
-18 6 -20 5 -11 -5 9 -9 30 -10 99 0 149 19 174 39 199 158 18 82 18 183 1
282 l-13 75 2 -100z"/>
<path d="M1100 2976 c0 -2 7 -7 16 -10 8 -3 12 -2 9 4 -6 10 -25 14 -25 6z"/>
<path d="M1503 2955 c0 -8 4 -12 9 -9 5 3 6 10 3 15 -9 13 -12 11 -12 -6z"/>
<path d="M1303 2935 c0 -8 4 -12 9 -9 5 3 6 10 3 15 -9 13 -12 11 -12 -6z"/>
<path d="M3771 2804 c0 -11 3 -14 6 -6 3 7 2 16 -1 19 -3 4 -6 -2 -5 -13z"/>
<path d="M3715 2790 c3 -6 1 -10 -5 -10 -6 0 -21 -10 -33 -21 l-22 -21 30 15
c54 29 59 33 40 40 -9 4 -13 3 -10 -3z"/>
<path d="M3752 2695 l-22 -27 24 -19 c18 -14 23 -26 20 -45 -3 -18 -1 -25 8
-22 19 7 23 98 5 122 -13 18 -14 17 -35 -9z"/>
<path d="M4350 2675 c-7 -8 -8 -15 -2 -15 5 0 15 7 22 15 7 8 8 15 2 15 -5 0
-15 -7 -22 -15z"/>
<path d="M4140 2671 c0 -5 -8 -12 -17 -15 -10 -3 -3 -4 16 -2 29 2 31 1 18 -9
-9 -7 -14 -15 -10 -18 11 -11 23 -8 21 6 -2 6 3 11 10 9 18 -3 6 15 -19 28
-11 7 -19 7 -19 1z"/>
<path d="M3870 2666 c0 -2 7 -6 15 -10 8 -3 15 -1 15 4 0 6 -7 10 -15 10 -8 0
-15 -2 -15 -4z"/>
<path d="M3843 2643 c-7 -2 -13 -8 -13 -12 0 -10 39 -11 45 0 4 5 -2 6 -11 2
-12 -4 -15 -3 -10 5 8 13 7 13 -11 5z"/>
<path d="M3919 2638 c14 -19 32 -15 30 5 0 8 -2 8 -6 -1 -4 -10 -8 -10 -21 0
-15 12 -16 11 -3 -4z"/>
<path d="M4532 2620 c0 -14 2 -19 5 -12 2 6 2 18 0 25 -3 6 -5 1 -5 -13z"/>
<path d="M3900 2615 c10 -12 9 -16 -5 -21 -13 -5 -14 -9 -3 -15 7 -5 18 -9 23
-9 6 0 4 4 -4 9 -9 6 -10 11 -3 15 13 8 4 36 -10 36 -6 0 -5 -6 2 -15z"/>
<path d="M4009 2613 c-13 -16 -12 -17 4 -4 9 7 17 15 17 17 0 8 -8 3 -21 -13z"/>
<path d="M5073 2622 c-13 -2 -23 -8 -23 -13 0 -5 -5 -8 -11 -6 -17 3 -21 -39
-5 -52 10 -9 15 -8 20 5 5 13 9 14 21 4 20 -17 19 -3 -1 18 -15 15 -15 16 2
23 11 3 22 2 25 -3 4 -6 9 -6 12 -2 8 14 -16 29 -40 26z m-24 -53 c-16 -10
-23 -4 -14 10 3 6 11 8 17 5 6 -4 5 -9 -3 -15z"/>
<path d="M4130 2610 c0 -5 5 -10 10 -10 6 0 10 5 10 10 0 6 -4 10 -10 10 -5 0
-10 -4 -10 -10z"/>
<path d="M4491 2594 c0 -11 3 -14 6 -6 3 7 2 16 -1 19 -3 4 -6 -2 -5 -13z"/>
<path d="M4180 2593 c0 -5 10 -18 23 -29 l22 -19 -20 25 c-11 14 -21 27 -22
29 -2 2 -3 0 -3 -6z"/>
<path d="M4146 2582 c-3 -5 1 -9 9 -9 8 0 12 4 9 9 -3 4 -7 8 -9 8 -2 0 -6 -4
-9 -8z"/>
<path d="M4245 2571 c-3 -5 -2 -12 3 -15 5 -3 9 1 9 9 0 17 -3 19 -12 6z"/>
<path d="M5105 2571 c-3 -5 -2 -12 3 -15 5 -3 9 1 9 9 0 17 -3 19 -12 6z"/>
<path d="M4036 2558 c3 -5 10 -6 15 -3 13 9 11 12 -6 12 -8 0 -12 -4 -9 -9z"/>
<path d="M4857 2549 c7 -7 15 -10 18 -7 3 3 -2 9 -12 12 -14 6 -15 5 -6 -5z"/>
<path d="M4800 2539 c0 -5 5 -7 10 -4 6 3 10 8 10 11 0 2 -4 4 -10 4 -5 0 -10
-5 -10 -11z"/>
<path d="M4775 2519 c-4 -6 -5 -12 -2 -15 2 -3 7 2 10 11 7 17 1 20 -8 4z"/>
<path d="M4705 2509 c-4 -6 -5 -12 -2 -15 2 -3 7 2 10 11 7 17 1 20 -8 4z"/>
<path d="M4726 2493 c-6 -14 -5 -15 5 -6 7 7 10 15 7 18 -3 3 -9 -2 -12 -12z"/>
<path d="M4636 2477 c3 -10 9 -15 12 -12 3 3 0 11 -7 18 -10 9 -11 8 -5 -6z"/>
<path d="M2763 2268 c-27 -13 -29 -26 -8 -34 8 -4 15 -13 15 -21 0 -10 6 -13
16 -9 9 3 21 6 29 6 18 0 25 33 10 53 -14 19 -30 20 -62 5z"/>
<path d="M2604 2133 c-4 -16 -8 -38 -8 -50 0 -13 -4 -23 -9 -23 -12 0 14 -24
41 -39 19 -10 23 -9 31 11 11 31 8 57 -12 96 -21 39 -32 41 -43 5z"/>
<path d="M2947 2013 c-4 -3 -7 -15 -7 -26 0 -25 13 -14 15 13 2 22 1 23 -8 13z"/>
<path d="M2970 1968 c0 -6 3 -8 6 -5 4 3 16 2 28 -4 20 -10 20 -10 2 5 -24 19
-36 20 -36 4z"/>
<path d="M2406 1501 c-4 -5 3 -7 14 -4 23 6 26 13 6 13 -8 0 -17 -4 -20 -9z"/>
<path d="M2315 1420 c3 -5 8 -10 11 -10 2 0 4 5 4 10 0 6 -5 10 -11 10 -5 0
-7 -4 -4 -10z"/>
<path d="M2465 1390 c-13 -6 -15 -9 -5 -9 8 0 22 4 30 9 18 12 2 12 -25 0z"/>
<path d="M2940 1315 c0 -5 5 -17 10 -25 5 -8 10 -10 10 -5 0 6 -5 17 -10 25
-5 8 -10 11 -10 5z"/>
<path d="M2980 1291 c0 -6 4 -13 10 -16 6 -3 7 1 4 9 -7 18 -14 21 -14 7z"/>
<path d="M2475 1230 c-3 -5 -1 -10 4 -10 6 0 11 5 11 10 0 6 -2 10 -4 10 -3 0
-8 -4 -11 -10z"/>
<path d="M2730 1195 c0 -8 4 -15 10 -15 5 0 7 7 4 15 -4 8 -8 15 -10 15 -2 0
-4 -7 -4 -15z"/>
<path d="M3520 1013 c0 -42 5 -54 41 -93 78 -86 88 -124 64 -240 -2 -14 2 -7
9 15 19 54 19 128 1 173 -11 25 -13 38 -5 40 7 3 5 11 -6 23 -9 10 -13 19 -9
19 5 0 -4 14 -21 32 l-29 31 32 -22 c18 -12 35 -26 38 -32 13 -21 65 -40 83
-30 19 10 56 -4 101 -38 l23 -18 -20 -91 c-24 -100 -89 -257 -153 -364 -54
-92 -240 -281 -305 -310 -13 -6 -24 -15 -24 -21 0 -22 197 104 254 162 22 22
44 37 50 34 6 -3 8 -2 3 2 -8 10 22 47 33 40 4 -3 14 3 21 13 13 15 12 16 -3
3 -10 -7 -18 -9 -18 -3 0 10 24 33 31 29 2 -1 3 0 2 2 -6 11 20 41 30 35 7 -4
9 -4 5 1 -11 11 11 47 24 39 6 -4 8 -3 4 4 -8 13 14 63 25 56 5 -3 6 1 3 9 -3
8 0 18 7 23 8 5 10 3 4 -6 -5 -8 -4 -11 3 -7 5 4 8 17 4 29 -4 16 -2 19 8 13
9 -5 11 -4 6 4 -4 6 8 44 27 84 47 98 77 173 77 191 0 9 4 16 8 16 13 0 20
135 8 147 -3 3 -85 7 -182 9 -155 3 -180 6 -211 24 -19 11 -36 20 -39 20 -2 0
-4 -21 -4 -47z"/>
<path d="M3606 635 c-9 -26 -7 -32 5 -12 6 10 9 21 6 23 -2 3 -7 -2 -11 -11z"/>
<path d="M640 529 c0 -5 5 -7 10 -4 6 3 10 8 10 11 0 2 -4 4 -10 4 -5 0 -10
-5 -10 -11z"/>
<path d="M3535 503 c-10 -14 -34 -45 -54 -68 -26 -31 -23 -29 12 7 43 45 74
88 64 88 -3 0 -13 -12 -22 -27z"/>
<path d="M699 499 c-10 -6 -7 -9 14 -9 29 0 35 5 14 13 -8 3 -20 1 -28 -4z"/>
<path d="M1450 482 c0 -12 19 -26 26 -19 2 2 -2 10 -11 17 -9 8 -15 8 -15 2z"/>
<path d="M663 465 c0 -8 4 -12 9 -9 5 3 6 10 3 15 -9 13 -12 11 -12 -6z"/>
<path d="M726 459 c2 -4 18 -7 34 -7 17 1 28 3 26 5 -8 8 -65 9 -60 2z"/>
<path d="M1407 449 c3 -10 10 -19 17 -20 6 0 19 -2 28 -4 13 -2 15 1 9 18 -11
29 -61 35 -54 6z"/>
<path d="M1476 438 c3 -5 10 -6 15 -3 13 9 11 12 -6 12 -8 0 -12 -4 -9 -9z"/>
<path d="M840 431 c0 -6 4 -12 8 -15 5 -3 9 1 9 9 0 8 -4 15 -9 15 -4 0 -8 -4
-8 -9z"/>
<path d="M1400 416 c0 -2 7 -6 15 -10 8 -3 15 -1 15 4 0 6 -7 10 -15 10 -8 0
-15 -2 -15 -4z"/>
<path d="M920 400 c0 -5 5 -10 10 -10 6 0 10 5 10 10 0 6 -4 10 -10 10 -5 0
-10 -4 -10 -10z"/>
<path d="M1475 398 c11 -6 25 -17 30 -25 7 -9 14 -10 25 -2 12 9 12 10 1 7 -8
-3 -23 4 -33 14 -10 10 -24 18 -30 18 -7 0 -4 -6 7 -12z"/>
<path d="M883 387 c0 -7 9 -13 19 -13 10 0 18 1 18 3 0 1 -8 7 -18 12 -13 7
-19 6 -19 -2z"/>
<path d="M90 370 c-8 -5 -10 -10 -5 -10 6 0 17 5 25 10 8 5 11 10 5 10 -5 0
-17 -5 -25 -10z"/>
<path d="M930 366 c0 -8 4 -17 9 -20 5 -4 7 3 4 14 -6 23 -13 26 -13 6z"/>
<path d="M3399 363 c-13 -16 -12 -17 4 -4 16 13 21 21 13 21 -2 0 -10 -8 -17
-17z"/>
<path d="M1483 345 c0 -8 4 -12 9 -9 5 3 6 10 3 15 -9 13 -12 11 -12 -6z"/>
<path d="M975 320 c3 -5 8 -10 11 -10 2 0 4 5 4 10 0 6 -5 10 -11 10 -5 0 -7
-4 -4 -10z"/>
<path d="M1100 267 c0 -9 9 -21 20 -27 11 -6 20 -9 20 -7 0 2 -9 14 -20 27
-16 18 -20 19 -20 7z"/>
<path d="M2280 191 c0 -6 4 -13 10 -16 6 -3 7 1 4 9 -7 18 -14 21 -14 7z"/>
<path d="M2356 171 c-3 -4 1 -17 10 -27 14 -18 15 -18 5 2 -6 12 -7 24 -4 28
3 3 4 6 0 6 -3 0 -8 -4 -11 -9z"/>
<path d="M1045 161 c-3 -5 -2 -12 3 -15 5 -3 9 1 9 9 0 17 -3 19 -12 6z"/>
<path d="M1100 146 c0 -13 -5 -26 -12 -28 -7 -3 -5 -7 6 -11 9 -4 15 -3 11 2
-3 5 -1 12 5 16 6 4 7 11 4 17 -4 7 2 8 17 3 23 -7 24 -7 4 9 -28 21 -35 20
-35 -8z"/>
<path d="M1667 133 c-12 -12 -7 -22 16 -33 21 -10 21 -10 3 4 -10 8 -15 19
-11 25 7 12 2 15 -8 4z"/>
<path d="M2335 129 c-4 -6 -5 -12 -2 -15 2 -3 7 2 10 11 7 17 1 20 -8 4z"/>
<path d="M1334 122 c4 -3 14 -7 22 -8 9 -1 13 0 10 4 -4 3 -14 7 -22 8 -9 1
-13 0 -10 -4z"/>
<path d="M2200 111 c0 -5 5 -13 10 -16 6 -3 10 -2 10 4 0 5 -4 13 -10 16 -5 3
-10 2 -10 -4z"/>
<path d="M1311 54 c0 -11 3 -14 6 -6 3 7 2 16 -1 19 -3 4 -6 -2 -5 -13z"/>
<path d="M1104 48 c-8 -9 -6 -18 7 -30 14 -13 19 -14 23 -3 2 7 -1 21 -8 30
-10 14 -14 14 -22 3z m20 -14 c3 -8 2 -12 -4 -9 -6 3 -10 10 -10 16 0 14 7 11
14 -7z"/>
<path d="M1155 40 c-3 -6 1 -7 9 -4 18 7 21 14 7 14 -6 0 -13 -4 -16 -10z"/>
<path d="M1699 34 c14 -11 34 -7 58 10 1 1 -15 1 -36 1 -32 0 -36 -2 -22 -11z"/>
<path d="M1355 30 c-3 -6 1 -7 9 -4 18 7 21 14 7 14 -6 0 -13 -4 -16 -10z"/>
<path d="M1786 28 c3 -5 10 -6 15 -3 13 9 11 12 -6 12 -8 0 -12 -4 -9 -9z"/>
<path d="M1176 18 c3 -5 10 -6 15 -3 13 9 11 12 -6 12 -8 0 -12 -4 -9 -9z"/>
</g>
</svg>
